<svg xmlns="http://www.w3.org/2000/svg" xmlns:xlink="http://www.w3.org/1999/xlink" viewBox="0 0 246.77 206.17"><defs><style>.cls-1{fill:none;}.cls-2{isolation:isolate;}.cls-3{fill:#9c1216;}.cls-4{clip-path:url(#clip-path);}.cls-5{clip-path:url(#clip-path-2);}.cls-6{clip-path:url(#clip-path-3);}.cls-7{clip-path:url(#clip-path-4);}.cls-8{fill:#9a1216;}.cls-9{fill:#a61418;}.cls-10{fill:#8e1114;}.cls-11{fill:#820f13;}.cls-12{clip-path:url(#clip-path-5);}.cls-13{clip-path:url(#clip-path-6);}.cls-14{clip-path:url(#clip-path-7);}.cls-15{clip-path:url(#clip-path-8);}.cls-16{clip-path:url(#clip-path-9);}.cls-17{fill:#d4191e;}.cls-18{clip-path:url(#clip-path-10);}</style><clipPath id="clip-path" transform="translate(0 -20.31)"><path class="cls-1" d="M86.41,100.09v4c-.78-3.36-2.06-5.72-3.87-7.11a10.69,10.69,0,0,0-6.69-2.07,12.64,12.64,0,0,0-11.13,5.93c-1.93,2.83-3.35,8.92-4.27,18.23v-4q1.38-14,4.27-18.24A12.67,12.67,0,0,1,75.85,90.9,10.75,10.75,0,0,1,82.54,93C84.35,94.36,85.63,96.73,86.41,100.09Z"/></clipPath><clipPath id="clip-path-2" transform="translate(0 -20.31)"><path class="cls-1" d="M159.34,106.21v4a95.65,95.65,0,0,0-.91,14.5v-4A95.41,95.41,0,0,1,159.34,106.21Z"/></clipPath><clipPath id="clip-path-3" transform="translate(0 -20.31)"><path class="cls-1" d="M186.56,121.35v4q0-17.3-3.58-23.26a11.55,11.55,0,0,0-7-5.49v-4a11.55,11.55,0,0,1,7,5.49Q186.55,104.06,186.56,121.35Z"/></clipPath><clipPath id="clip-path-4" transform="translate(0 -20.31)"><path class="cls-1" d="M188.38,58v4c-17.53-12-40.12-19.29-64.79-19.29-55.73,0-100.89,37-100.89,82.65v-4c0-45.65,45.16-82.65,100.89-82.65C148.26,38.74,170.85,46,188.38,58Z"/></clipPath><clipPath id="clip-path-5" transform="translate(0 -20.31)"><path class="cls-1" d="M224.47,121.39v4c0-19.22-8-36.92-21.45-51v-4C216.46,84.47,224.47,102.16,224.47,121.39Z"/></clipPath><clipPath id="clip-path-6" transform="translate(0 -20.31)"><path class="cls-1" d="M90,136.46v4q0-7.33-4-11.2a14.06,14.06,0,0,0-10.06-3.85,14.85,14.85,0,0,0-10.3,3.74q-4.16,3.74-4.16,10.66v-4q0-6.92,4.16-10.66a14.89,14.89,0,0,1,10.3-3.73A14,14,0,0,1,86,125.26Q90,129.1,90,136.46Z"/></clipPath><clipPath id="clip-path-7" transform="translate(0 -20.31)"><path class="cls-1" d="M59.05,164v4a41.11,41.11,0,0,1-7.35-2.53,34.36,34.36,0,0,1-15.37-14.18q-5.73-9.75-5.74-25.8v-4q0,16,5.74,25.79A34.38,34.38,0,0,0,51.7,161.45,41.11,41.11,0,0,0,59.05,164Z"/></clipPath><clipPath id="clip-path-8" transform="translate(0 -20.31)"><path class="cls-1" d="M117.56,140.44v4A26.84,26.84,0,0,1,113,155.51a30.65,30.65,0,0,1-13.75,10.76,47,47,0,0,1-12,3v-4a47,47,0,0,0,12-3.05A30.57,30.57,0,0,0,113,151.5,27,27,0,0,0,117.56,140.44Z"/></clipPath><clipPath id="clip-path-9" transform="translate(0 -20.31)"><path class="cls-1" d="M215.85,120.34v4q0,23.64-9.77,34.59t-33.62,11q-13.38,0-21.62-3.49a33.46,33.46,0,0,1-13.53-10.25q-3.83-4.8-6-13.13a67.82,67.82,0,0,1-1.58-8.59v-4a67.65,67.65,0,0,0,1.58,8.6q2.15,8.33,6,13.12a33.37,33.37,0,0,0,13.53,10.25q8.24,3.49,21.62,3.49,23.86,0,33.62-10.95T215.85,120.34Z"/></clipPath><clipPath id="clip-path-10" transform="translate(0 -20.31)"><path class="cls-1" d="M246.77,121.39v4c0,55.82-55.24,101.07-123.38,101.07S0,181.22,0,125.4v-4C0,177.2,55.24,222.46,123.39,222.46S246.77,177.2,246.77,121.39Z"/></clipPath></defs><g id="Layer_2" data-name="Layer 2"><g id="Layer_1-2" data-name="Layer 1"><g class="cls-2"><polygon class="cls-3" points="203.02 50.13 203.02 54.14 192.69 62.6 192.69 58.58 203.02 50.13"/><polygon class="cls-3" points="192.69 58.58 192.69 62.6 175.95 76.32 175.95 72.3 192.69 58.58"/><polygon points="115.69 76.82 115.69 80.83 86.41 83.8 86.41 79.78 115.69 76.82"/><polygon points="165.97 56.08 165.97 60.1 130.49 89.16 130.49 85.14 165.97 56.08"/><polygon class="cls-3" points="175.95 72.3 175.95 76.32 159.34 89.92 159.34 85.9 175.95 72.3"/><g class="cls-2"><g class="cls-4"><g class="cls-2"><path d="M86.41,100.09v4A14.54,14.54,0,0,0,84,98.51v-4a14.66,14.66,0,0,1,2.38,5.6" transform="translate(0 -20.31)"/><path d="M84,94.49v4A8,8,0,0,0,82.54,97l-.14-.1v-4l.14.1A8.27,8.27,0,0,1,84,94.49" transform="translate(0 -20.31)"/><path d="M82.4,92.87v4A9.16,9.16,0,0,0,80,95.61v-4a9.8,9.8,0,0,1,2.39,1.28" transform="translate(0 -20.31)"/><path d="M80,91.59v4a11.9,11.9,0,0,0-4.16-.69,14.1,14.1,0,0,0-4.87.81v-4a13.87,13.87,0,0,1,4.87-.82,11.9,11.9,0,0,1,4.16.69" transform="translate(0 -20.31)"/><path d="M71,91.72v4a11.84,11.84,0,0,0-3,1.59v-4a11.81,11.81,0,0,1,3-1.58" transform="translate(0 -20.31)"/><path d="M68,93.3v4a13.22,13.22,0,0,0-2.77,2.77v-4A13.46,13.46,0,0,1,68,93.3" transform="translate(0 -20.31)"/><path d="M65.26,96.07v4a8.61,8.61,0,0,0-.54.76c-1.93,2.83-3.35,8.92-4.27,18.23v-4q1.38-14,4.27-18.24c.17-.26.35-.51.54-.76" transform="translate(0 -20.31)"/></g></g></g><g class="cls-2"><g class="cls-5"><g class="cls-2"><path d="M159.34,106.21v4a95.65,95.65,0,0,0-.91,14.5v-4a95.41,95.41,0,0,1,.91-14.49" transform="translate(0 -20.31)"/></g></g></g><g class="cls-2"><g class="cls-6"><g class="cls-2"><path d="M186.56,121.35v4q0-17.3-3.58-23.26a14.84,14.84,0,0,0-.86-1.27v-4A15,15,0,0,1,183,98.1q3.57,6,3.58,23.25" transform="translate(0 -20.31)"/><path d="M182.12,96.82v4a11.8,11.8,0,0,0-2.45-2.44v-4a12,12,0,0,1,2.45,2.44" transform="translate(0 -20.31)"/><path d="M179.67,94.38v4A10.87,10.87,0,0,0,177,97v-4a11.2,11.2,0,0,1,2.71,1.45" transform="translate(0 -20.31)"/><path d="M177,92.93v4c-.33-.13-.67-.23-1-.33v-4c.34.09.68.2,1,.32" transform="translate(0 -20.31)"/></g></g></g><g class="cls-2"><g class="cls-7"><g class="cls-2"><path class="cls-8" d="M188.38,58v4A106.82,106.82,0,0,0,164.92,50V46A106.85,106.85,0,0,1,188.38,58" transform="translate(0 -20.31)"/><path class="cls-9" d="M164.92,46v4a121.75,121.75,0,0,0-82.58,0v-4a121.83,121.83,0,0,1,82.58,0" transform="translate(0 -20.31)"/><path class="cls-8" d="M82.34,45.94v4A105.66,105.66,0,0,0,56.28,63.83v-4A105.3,105.3,0,0,1,82.34,45.94" transform="translate(0 -20.31)"/><path class="cls-10" d="M56.28,59.81v4A89.23,89.23,0,0,0,37.76,81.94v-4A89.48,89.48,0,0,1,56.28,59.81" transform="translate(0 -20.31)"/><path class="cls-11" d="M37.76,77.92v4C28.21,94.57,22.7,109.46,22.7,125.4v-4c0-16,5.51-30.84,15.06-43.47" transform="translate(0 -20.31)"/></g></g></g><g class="cls-2"><g class="cls-12"><g class="cls-2"><path class="cls-11" d="M224.47,121.39v4c0-15.94-5.51-30.83-15.05-43.45v-4c9.54,12.62,15.05,27.51,15.05,43.46" transform="translate(0 -20.31)"/><path class="cls-10" d="M209.42,77.93v4a85.27,85.27,0,0,0-6.4-7.51v-4a85.15,85.15,0,0,1,6.4,7.5" transform="translate(0 -20.31)"/></g></g></g><polygon class="cls-3" points="159.34 85.9 159.34 89.92 129.77 114.14 129.77 110.13 159.34 85.9"/><g class="cls-2"><g class="cls-13"><g class="cls-2"><path d="M90,136.46v4q0-6.09-2.79-9.78v-4Q90,130.36,90,136.46" transform="translate(0 -20.31)"/><path d="M87.24,126.67v4A11.32,11.32,0,0,0,86,129.27a17,17,0,0,0-1.4-1.17v-4a13.78,13.78,0,0,1,1.4,1.17,12,12,0,0,1,1.26,1.41" transform="translate(0 -20.31)"/><path d="M84.58,124.09v4a13.38,13.38,0,0,0-3.31-1.78v-4a13.06,13.06,0,0,1,3.31,1.78" transform="translate(0 -20.31)"/><path d="M81.27,122.31v4a15.36,15.36,0,0,0-5.35-.9,16.47,16.47,0,0,0-5.72,1v-4a16.47,16.47,0,0,1,5.72-1,15.36,15.36,0,0,1,5.35.9" transform="translate(0 -20.31)"/><path d="M70.2,122.37v4a14,14,0,0,0-3.47,1.87v-4a14.33,14.33,0,0,1,3.47-1.86" transform="translate(0 -20.31)"/><path d="M66.73,124.23v4a13.38,13.38,0,0,0-1.11.91,11.78,11.78,0,0,0-1.52,1.64v-4a11.85,11.85,0,0,1,1.52-1.65c.36-.32.73-.62,1.11-.91" transform="translate(0 -20.31)"/><path d="M64.1,126.79v4a14.57,14.57,0,0,0-2.64,9v-4a14.54,14.54,0,0,1,2.64-9" transform="translate(0 -20.31)"/></g></g></g><polygon points="112.92 99.54 112.92 103.56 89.92 122.39 89.92 118.38 112.92 99.54"/><polygon class="cls-3" points="129.77 110.13 129.77 114.14 117.56 124.15 117.56 120.13 129.77 110.13"/><polygon points="75.13 130.5 75.13 134.51 59.05 147.69 59.05 143.67 75.13 130.5"/><path d="M89.92,138.68c.07-.71.11-1.45.11-2.22q0-7.35-4-11.2a14,14,0,0,0-10.06-3.85,14.89,14.89,0,0,0-10.3,3.73q-4.16,3.73-4.16,10.66t4.34,11a14.9,14.9,0,0,0,9.33,4L59.05,164a41.11,41.11,0,0,1-7.35-2.53,34.38,34.38,0,0,1-15.37-14.19q-5.73-9.73-5.74-25.79Q30.59,98,42.66,87T76.14,76.1q12.66,0,20,2.4a31.49,31.49,0,0,1,12.18,7,29.74,29.74,0,0,1,7.37,11.62l-29.28,3c-.78-3.36-2.06-5.73-3.87-7.12a10.75,10.75,0,0,0-6.69-2.07,12.67,12.67,0,0,0-11.13,5.93q-2.89,4.26-4.27,18.24a38.17,38.17,0,0,1,10.85-6.48,36.33,36.33,0,0,1,12.87-2.11q14.17,0,24,8.29a29.92,29.92,0,0,1,4.78,5.08Z" transform="translate(0 -20.31)"/><g class="cls-2"><g class="cls-14"><g class="cls-2"><path d="M59.05,164v4a44,44,0,0,1-4.66-1.42v-4A44,44,0,0,0,59.05,164" transform="translate(0 -20.31)"/><path d="M54.39,162.56v4c-.93-.34-1.83-.71-2.69-1.11a32.85,32.85,0,0,1-5.79-3.41v-4a33.47,33.47,0,0,0,5.79,3.41c.86.4,1.76.77,2.69,1.11" transform="translate(0 -20.31)"/><path d="M45.91,158v4a34.07,34.07,0,0,1-7-7v-4a34.12,34.12,0,0,0,7,7" transform="translate(0 -20.31)"/><path d="M38.86,151v4a40.77,40.77,0,0,1-2.53-3.78q-5.73-9.75-5.74-25.8v-4q0,16,5.74,25.79A38.26,38.26,0,0,0,38.86,151" transform="translate(0 -20.31)"/></g></g></g><polygon class="cls-3" points="117.56 120.13 117.56 124.15 87.21 149.01 87.21 144.99 117.56 120.13"/><g class="cls-2"><g class="cls-15"><g class="cls-2"><path d="M117.56,140.44v4A26.84,26.84,0,0,1,113,155.51c-.22.31-.44.61-.67.91v-4c.23-.3.45-.61.67-.91a27,27,0,0,0,4.57-11.06" transform="translate(0 -20.31)"/><path d="M112.32,152.41v4a28.36,28.36,0,0,1-6,5.89v-4a28.6,28.6,0,0,0,6-5.89" transform="translate(0 -20.31)"/><path d="M106.33,158.3v4a33.66,33.66,0,0,1-7.09,4l-1.37.54v-4c.46-.17.92-.35,1.37-.54a33.63,33.63,0,0,0,7.09-3.95" transform="translate(0 -20.31)"/><path d="M97.87,162.79v4a49.21,49.21,0,0,1-10.66,2.5v-4a49.19,49.19,0,0,0,10.66-2.51" transform="translate(0 -20.31)"/></g></g></g><g class="cls-2"><g class="cls-16"><g class="cls-2"><path d="M215.85,120.34v4q0,21.83-8.33,32.83v-4q8.32-11,8.33-32.84" transform="translate(0 -20.31)"/><path d="M207.52,153.18v4c-.46.62-.94,1.2-1.44,1.76a25.2,25.2,0,0,1-3.92,3.56v-4a25.14,25.14,0,0,0,3.92-3.55c.5-.56,1-1.15,1.44-1.76" transform="translate(0 -20.31)"/><path d="M202.16,158.49v4a32,32,0,0,1-7.91,4.16v-4a31.66,31.66,0,0,0,7.91-4.16" transform="translate(0 -20.31)"/><path d="M194.25,162.65v4q-8.81,3.24-21.79,3.24-12.22,0-20.17-2.92v-4q7.94,2.92,20.17,2.92,13,0,21.79-3.24" transform="translate(0 -20.31)"/><path d="M152.29,163v4c-.49-.18-1-.37-1.45-.57a35.17,35.17,0,0,1-7.11-4v-4a35.13,35.13,0,0,0,7.11,4c.47.2,1,.39,1.45.57" transform="translate(0 -20.31)"/><path d="M143.73,158.39v4a32.93,32.93,0,0,1-6.42-6.23l-.34-.44v-4l.34.44a33.27,33.27,0,0,0,6.42,6.24" transform="translate(0 -20.31)"/><path d="M137,151.71v4A35.52,35.52,0,0,1,131.35,143a67.82,67.82,0,0,1-1.58-8.59v-4a67.65,67.65,0,0,0,1.58,8.6A35.47,35.47,0,0,0,137,151.71" transform="translate(0 -20.31)"/></g></g></g><path d="M212.88,100.09a68.81,68.81,0,0,1,3,20.25q0,23.64-9.77,34.6t-33.62,10.95q-13.38,0-21.62-3.49a33.37,33.37,0,0,1-13.53-10.25q-3.83-4.8-6-13.12a67.65,67.65,0,0,1-1.58-8.6l29.57-24.22a95.41,95.41,0,0,0-.91,14.49q0,16.58,3.58,22.66a11.39,11.39,0,0,0,10.38,6.06,12.22,12.22,0,0,0,7.77-2.57q3.3-2.58,4.84-8.14t1.56-17.36q0-17.3-3.58-23.25a11.55,11.55,0,0,0-7-5.49l16.74-13.72a32.63,32.63,0,0,1,9.34,5,31.22,31.22,0,0,1,6.83,7.29A33.68,33.68,0,0,1,212.88,100.09Z" transform="translate(0 -20.31)"/><polygon class="cls-3" points="87.21 144.99 87.21 149.01 61.38 170.17 61.38 166.15 87.21 144.99"/><path class="cls-17" d="M123.39,20.31c68.14,0,123.38,45.25,123.38,101.08S191.53,222.46,123.39,222.46,0,177.2,0,121.39,55.24,20.31,123.39,20.31ZM46.25,174.46,59.05,164,75.13,150.8l14.79-12.12,23-18.83,17.57-14.4L166,76.39,188.38,58C170.85,46,148.26,38.74,123.59,38.74c-55.73,0-100.89,37-100.89,82.65,0,20.2,8.85,38.71,23.55,53.07M123.59,204c55.72,0,100.88-37,100.88-82.63,0-19.23-8-36.92-21.45-51l-10.33,8.46L176,92.61l-16.61,13.6-29.57,24.22-12.21,10L87.21,165.3,61.38,186.46c17.14,11,38.74,17.56,62.21,17.56" transform="translate(0 -20.31)"/><path d="M140.1,86q9-8.2,25.87-9.6l-35.48,29.06Q133,92.51,140.1,86Z" transform="translate(0 -20.31)"/><path d="M87.21,165.3l30.35-24.86A27,27,0,0,1,113,151.5a30.57,30.57,0,0,1-13.75,10.75A47,47,0,0,1,87.21,165.3Z" transform="translate(0 -20.31)"/><g class="cls-2"><g class="cls-18"><g class="cls-2"><path class="cls-11" d="M246.77,121.39v4c0,19.5-6.74,37.7-18.41,53.14v-4c11.67-15.44,18.41-33.65,18.41-53.14" transform="translate(0 -20.31)"/><path class="cls-10" d="M228.36,174.53v4a109.59,109.59,0,0,1-22.66,22.15v-4a110.09,110.09,0,0,0,22.66-22.15" transform="translate(0 -20.31)"/><path class="cls-8" d="M205.7,196.68v4a129.21,129.21,0,0,1-31.87,17v-4a129.19,129.19,0,0,0,31.87-17" transform="translate(0 -20.31)"/><path class="cls-9" d="M173.83,213.65v4a148.91,148.91,0,0,1-100.89,0v-4a148.83,148.83,0,0,0,100.89,0" transform="translate(0 -20.31)"/><path class="cls-8" d="M72.94,213.65v4a129.19,129.19,0,0,1-31.87-17v-4a129.19,129.19,0,0,0,31.87,17" transform="translate(0 -20.31)"/><path class="cls-10" d="M41.07,196.68v4a109.59,109.59,0,0,1-22.66-22.15v-4a109.88,109.88,0,0,0,22.66,22.16" transform="translate(0 -20.31)"/><path class="cls-11" d="M18.41,174.52v4C6.74,163.1,0,144.9,0,125.4v-4c0,19.49,6.74,37.7,18.41,53.13" transform="translate(0 -20.31)"/></g></g></g></g></g></g></svg>